<?xml version="1.0" encoding="UTF-8"?>
<svg xmlns="http://www.w3.org/2000/svg" xmlns:xlink="http://www.w3.org/1999/xlink" version="1.1" id="Layer_1" x="0px" y="0px" width="636.714px" height="633.118px" viewBox="0 0 636.714 633.118" xml:space="preserve">
<path id="_x23_191919_00000066475561060809193560000003144244305678191515_" fill="#191919" d="M615.688,530.675  c-8.893-4.119-19.411-4.817-28.854-1.916c-3.735,1.146-7.16,2.812-10.232,4.972l-61.733-61.315  c40.887-46.026,65.742-106.472,65.742-172.601c0-57.576-18.871-110.846-50.755-154.047l47.556-47.234  c9.487,6.854,21.477,9.304,32.355,6.382c9.828-2.636,17.868-9.267,22.637-18.671c4.432-8.738,5.506-19.224,2.945-28.767  c-3.733-13.918-14.771-23.736-28.775-26.028c-1.792-14.078-11.209-25.458-24.985-29.686c-9.448-2.9-19.965-2.2-28.855,1.916  c-9.568,4.432-16.481,12.23-19.466,21.957c-3.336,10.866-1.258,23.033,5.382,32.799l-46.507,46.192  c-46.317-40.863-107.201-65.719-173.785-65.719s-127.469,24.856-173.785,65.719L98.065,58.436c6.64-9.766,8.718-21.932,5.382-32.799  C100.462,15.91,93.549,8.112,83.98,3.681c-8.891-4.117-19.408-4.815-28.855-1.916C41.35,5.992,31.933,17.373,30.141,31.451  C16.137,33.745,5.099,43.562,1.366,57.478c-2.561,9.544-1.488,20.03,2.945,28.768c4.77,9.404,12.809,16.035,22.636,18.671  c10.88,2.921,22.868,0.472,32.356-6.382l47.556,47.234c-31.884,43.201-50.755,96.47-50.755,154.046  c0,66.129,24.855,126.575,65.742,172.601l-61.733,61.315c-3.073-2.161-6.497-3.827-10.231-4.973  c-9.446-2.899-19.963-2.2-28.855,1.916c-9.568,4.432-16.482,12.229-19.467,21.956c-2.925,9.528-1.696,20.28,3.371,29.499  c4.988,9.076,13.291,15.951,22.778,18.863c0.789,0.242,1.588,0.458,2.392,0.646c0.16,0.81,0.347,1.615,0.561,2.412  c2.571,9.587,9.146,18.13,18.038,23.438c9.036,5.396,19.74,7.008,29.36,4.422c9.828-2.636,17.868-9.267,22.637-18.671  c4.432-8.738,5.506-19.224,2.945-28.767c-1.038-3.872-2.634-7.435-4.763-10.646l64.261-63.825  c22.405,16.419,47.51,29.39,74.529,38.095c0.396,0.828,0.788,1.657,1.22,2.473c3.885,7.346,9.236,14.192,15.967,20.266  c15.519,14.004,36.519,22.266,59.129,23.267c1.527,0.068,2.861,0.102,4.373,0.102s2.845-0.034,4.373-0.102  c22.611-1.001,43.61-9.264,59.129-23.267c6.731-6.073,12.082-12.919,15.967-20.266c0.432-0.816,0.824-1.645,1.22-2.473  c27.019-8.706,52.124-21.676,74.529-38.095l64.261,63.825c-2.129,3.21-3.725,6.774-4.763,10.645  c-2.561,9.545-1.487,20.03,2.945,28.768c4.77,9.404,12.809,16.035,22.636,18.67c2.985,0.801,6.104,1.207,9.27,1.207  c6.975,0,13.922-1.947,20.09-5.629c8.892-5.309,15.467-13.852,18.038-23.437c0.214-0.798,0.401-1.603,0.561-2.413  c0.804-0.189,1.602-0.404,2.391-0.646c9.488-2.912,17.791-9.787,22.779-18.863c5.067-9.219,6.296-19.971,3.371-29.499  C632.17,542.904,625.256,535.106,615.688,530.675z"></path>
<path id="_x23_191919" fill="#191919" d="M293.867,354.689c0,29.604-23.998,53.602-53.602,53.602  c-29.603,0-53.602-23.998-53.602-53.602c0-29.604,23.998-53.602,53.602-53.602C269.869,301.087,293.867,325.085,293.867,354.689z   M396.449,301.087c-29.604,0-53.602,23.998-53.602,53.602c0,29.604,23.998,53.602,53.602,53.602  c29.603,0,53.602-23.998,53.602-53.602C450.051,325.085,426.052,301.087,396.449,301.087z M318.357,400.38  c-11.439,0-20.711,9.273-20.711,20.711c0,11.439,9.273,20.711,20.711,20.711c11.439,0,20.711-9.273,20.711-20.711  C339.069,409.653,329.796,400.38,318.357,400.38z M635.155,552.63c2.925,9.528,1.696,20.28-3.371,29.499  c-4.988,9.076-13.291,15.951-22.779,18.863c-0.789,0.242-1.587,0.458-2.391,0.646c-0.16,0.81-0.346,1.615-0.561,2.413  c-2.572,9.586-9.146,18.128-18.038,23.437c-6.168,3.682-13.115,5.629-20.09,5.629c-3.166,0-6.285-0.406-9.27-1.207  c-9.827-2.636-17.866-9.267-22.636-18.67c-4.432-8.738-5.506-19.224-2.945-28.768c1.038-3.871,2.634-7.435,4.763-10.645  l-64.261-63.825c-22.405,16.419-47.51,29.39-74.529,38.095c-0.396,0.828-0.788,1.657-1.22,2.473  c-3.885,7.346-9.236,14.192-15.967,20.266c-15.519,14.004-36.519,22.266-59.129,23.267c-1.528,0.068-2.861,0.102-4.373,0.102  s-2.845-0.034-4.373-0.102c-22.611-1.001-43.61-9.264-59.129-23.267c-6.731-6.073-12.082-12.919-15.967-20.266  c-0.432-0.816-0.824-1.645-1.22-2.473c-27.019-8.706-52.124-21.676-74.529-38.095l-64.261,63.825  c2.129,3.211,3.725,6.775,4.763,10.646c2.561,9.543,1.487,20.029-2.945,28.767c-4.77,9.404-12.809,16.035-22.637,18.671  c-9.62,2.586-20.324,0.974-29.36-4.422c-8.892-5.309-15.467-13.852-18.038-23.438c-0.214-0.797-0.401-1.602-0.561-2.412  c-0.804-0.188-1.603-0.404-2.392-0.646c-9.487-2.912-17.79-9.787-22.778-18.863c-5.067-9.219-6.296-19.971-3.371-29.499  c2.985-9.727,9.899-17.524,19.467-21.956c8.891-4.116,19.408-4.816,28.855-1.916c3.734,1.146,7.159,2.811,10.231,4.973  l61.733-61.315C80.959,426.39,56.104,365.944,56.104,299.815c0-57.576,18.871-110.846,50.755-154.046L59.302,98.535  c-9.487,6.854-21.476,9.304-32.356,6.382C17.12,102.28,9.08,95.65,4.31,86.246c-4.432-8.738-5.506-19.224-2.945-28.768  c3.733-13.916,14.771-23.733,28.775-26.027C31.933,17.373,41.35,5.992,55.126,1.764c9.446-2.898,19.963-2.2,28.855,1.916  c9.568,4.432,16.481,12.229,19.467,21.956c3.335,10.867,1.258,23.033-5.382,32.799l46.507,46.192  c46.317-40.863,107.201-65.719,173.785-65.719s127.469,24.856,173.785,65.719l46.507-46.192c-6.64-9.766-8.718-21.932-5.382-32.799  c2.985-9.727,9.899-17.525,19.466-21.957c8.89-4.117,19.406-4.816,28.855-1.916c13.776,4.228,23.193,15.609,24.985,29.686  c14.005,2.293,25.042,12.11,28.775,26.028c2.561,9.543,1.488,20.029-2.945,28.767c-4.77,9.404-12.809,16.035-22.637,18.671  c-10.878,2.922-22.867,0.472-32.355-6.382l-47.556,47.234c31.884,43.201,50.755,96.47,50.755,154.047  c0,66.129-24.855,126.575-65.742,172.601l61.733,61.315c3.073-2.16,6.497-3.826,10.232-4.972c9.443-2.901,19.96-2.202,28.854,1.916  C625.256,535.106,632.17,542.904,635.155,552.63z M499.651,111.498c8.564,8.163,16.569,16.901,23.964,26.143l53.608-53.245  c6.929,8.83,18.851,13.671,29.911,10.703c14.731-3.952,22.35-20.256,18.398-34.987c-3.576-13.331-15.981-20.448-29.223-18.757  c2.162-13.173-4.508-25.823-17.702-29.873c-14.58-4.475-31.146,2.557-35.621,17.138c-3.36,10.947,1.052,23.034,9.629,30.273  L499.651,111.498z M113.1,137.641c7.395-9.242,15.4-17.98,23.964-26.143L84.1,58.893c8.577-7.239,12.989-19.327,9.629-30.273  c-4.475-14.58-21.041-21.613-35.621-17.138c-13.195,4.05-19.864,16.7-17.702,29.873c-13.242-1.691-25.646,5.426-29.223,18.757  c-3.952,14.731,3.667,31.035,18.398,34.987c11.06,2.967,22.982-1.873,29.911-10.703L113.1,137.641z M68.836,272.95  c17.654-11.059,44.448-19.505,75.7-25.743c11.006-36.13,33.647-68.59,63.923-91.522c31.739-24.041,69.839-36.749,109.898-36.749  s78.159,12.708,109.898,36.749c30.276,22.933,52.917,55.392,63.923,91.522c31.252,6.238,58.046,14.685,75.7,25.743  C554.37,147.891,447.546,50.185,318.357,50.185S82.344,147.891,68.836,272.95z M163.874,228.277  c-2.521,5.371-4.789,10.892-6.743,16.574c50.462-8.84,110.315-12.462,161.226-12.462s110.764,3.622,161.226,12.462  c-1.954-5.682-4.222-11.203-6.743-16.574c-31.088-6.374-109.041-13.033-154.483-13.033S194.962,221.903,163.874,228.277z   M318.357,207.189c43.919,0,114.987,5.858,149.905,12.02c-29.314-53.716-86.903-88.997-149.905-88.997  s-120.59,35.281-149.905,88.997C203.37,213.046,274.438,207.189,318.357,207.189z M67.544,291.23  c19.121,1.95,54.762,9.022,69.486,12.034c1.651-33.878,39.938-36.961,73.946-39.675c32.147-2.566,73.384-4.16,107.381-4.16  s75.234,1.594,107.381,4.16c34.008,2.715,72.295,5.797,73.946,39.675c14.724-3.011,50.365-10.083,69.485-12.034  c-0.091-2.66-0.225-5.308-0.399-7.946c-41.545-31.559-159.961-42.841-250.414-42.841s-208.868,11.282-250.414,42.841  C67.769,285.922,67.635,288.57,67.544,291.23z M260.998,523.216c7.732,2.031,17.294,4.125,28.058,5.612l6.672-25.189  c-9.721-0.736-18.653-1.856-26.343-3.05L260.998,523.216z M268.402,473.257c-4.027-1.149-8.022-2.397-11.952-3.821  c-2.612,6.416-4.981,12.923-6.986,19.171c3.503,0.789,8.508,1.838,14.634,2.911L268.402,473.257z M299.936,495.846v-16.561  c-8.577-0.861-17.026-2.329-25.305-4.373l-4.163,17.66C278.969,493.896,289.031,495.137,299.936,495.846z M295.512,529.627  c7.179,0.783,14.947,1.263,22.846,1.263s15.667-0.48,22.846-1.263l-6.77-25.562c-5.152,0.282-10.627,0.447-16.075,0.447  s-10.923-0.165-16.075-0.447L295.512,529.627z M318.357,496.458c4.009,0,8.107-0.095,11.977-0.262v-16.386  c-3.925,0.254-8.012,0.425-11.977,0.425s-8.052-0.171-11.977-0.425v16.386C310.25,496.363,314.349,496.458,318.357,496.458z   M347.658,528.828c10.764-1.487,20.326-3.58,28.058-5.612l-8.387-22.627c-7.69,1.193-16.621,2.314-26.343,3.05L347.658,528.828z   M366.246,492.572l-4.163-17.66c-8.279,2.044-16.728,3.512-25.305,4.373v16.561C347.683,495.137,357.745,493.896,366.246,492.572z   M372.616,491.518c6.126-1.073,11.131-2.121,14.634-2.911c-2.005-6.248-4.374-12.755-6.986-19.171  c-3.93,1.423-7.925,2.672-11.952,3.821L372.616,491.518z M488.404,308.204c1.535-24.093-18.368-29.768-63.562-33.376  c-31.872-2.544-72.764-4.124-106.485-4.124s-74.613,1.58-106.485,4.124c-45.194,3.608-65.098,9.283-63.562,33.376  c4.194,65.883,45.193,121.326,101.91,146.4c3.5,1.547,7.06,2.976,10.674,4.287c17.954,6.513,37.406,10.066,57.463,10.066  s39.509-3.553,57.463-10.066c3.614-1.311,7.175-2.74,10.674-4.287C443.211,429.53,484.21,374.087,488.404,308.204z M154.981,503.776  c-9.278-7.371-18.043-15.353-26.235-23.887l-68.54,68.075c-3.08-4.344-7.577-7.729-13.309-9.488  c-14.58-4.475-31.146,2.558-35.621,17.138c-4.475,14.58,4.835,31.187,19.415,35.662c3.056,0.938,6.075,1.268,8.99,1.118  c-0.254,2.909-0.032,5.937,0.796,9.025c3.952,14.731,20.216,24.628,34.946,20.676c14.731-3.952,22.35-20.257,18.398-34.987  c-1.554-5.791-4.777-10.406-9.007-13.639L154.981,503.776z M245.282,464.963c-18.974-8.352-36.524-19.995-51.869-34.651  c-32.761-31.29-52.633-73.385-56.161-118.778c-13.093-2.686-50.471-10.178-69.867-12.234c0,0.172-0.007,0.343-0.007,0.515  c0,107.885,69.131,199.988,165.616,234.781c-1.17-5.237-1.698-10.608-1.468-16.053C232.081,505.415,237.472,484.382,245.282,464.963  z M242.89,517.612c2.378,0.872,6.455,2.288,11.878,3.875l8.142-21.965c-6.7-1.171-12.108-2.323-15.787-3.169  C244.814,504.56,243.306,511.949,242.89,517.612z M393.677,526.236c-11.748,4.094-40.726,12.709-75.32,12.709  s-63.572-8.615-75.32-12.709c0.529,5.048,1.815,9.997,3.842,14.75c2.164,5.073,5.149,9.923,8.926,14.433  c1.962,2.343,4.126,4.599,6.502,6.742c13.592,12.265,32.119,19.509,52.165,20.396c1.364,0.06,2.536,0.085,3.885,0.085  c1.349,0,2.521-0.025,3.885-0.085c20.046-0.888,38.573-8.131,52.165-20.396c2.376-2.144,4.54-4.399,6.502-6.742  c3.776-4.51,6.762-9.36,8.926-14.433C391.862,536.233,393.148,531.284,393.677,526.236z M393.824,517.612  c-0.416-5.662-1.923-13.052-4.233-21.259c-3.679,0.846-9.087,1.998-15.787,3.169l8.142,21.965  C387.369,519.899,391.446,518.484,393.824,517.612z M569.335,299.815c0-0.172-0.006-0.343-0.007-0.515  c-19.396,2.056-56.774,9.548-69.867,12.234c-3.528,45.393-23.399,87.488-56.161,118.778c-15.344,14.655-32.895,26.299-51.869,34.651  c7.81,19.419,13.201,40.452,13.755,53.579c0.229,5.445-0.299,10.816-1.469,16.053C500.204,499.803,569.335,407.699,569.335,299.815z   M625.438,555.613c-4.475-14.58-21.041-21.613-35.621-17.138c-5.732,1.759-10.229,5.145-13.309,9.488l-68.54-68.075  c-8.192,8.534-16.957,16.517-26.235,23.887l70.166,69.691c-4.231,3.233-7.454,7.848-9.007,13.639  c-3.952,14.73,3.667,31.035,18.398,34.987c14.73,3.952,30.994-5.945,34.946-20.676c0.828-3.087,1.05-6.116,0.796-9.025  c2.916,0.15,5.935-0.18,8.99-1.118C620.602,586.8,629.913,570.194,625.438,555.613z"></path>
<path id="_x23_AC2926" fill="#AC2926" d="M157.131,244.85c50.462-8.84,110.315-12.462,161.226-12.462s110.764,3.622,161.226,12.462  c-1.954-5.682-4.222-11.203-6.743-16.574c-31.088-6.374-109.041-13.033-154.483-13.033s-123.395,6.66-154.483,13.033  C161.354,233.648,159.085,239.168,157.131,244.85z"></path>
<path id="_x23_F8B222" fill="#F8B222" d="M569.17,291.23c-19.121,1.95-54.762,9.022-69.485,12.034  c-1.651-33.878-39.938-36.961-73.946-39.675c-32.147-2.566-73.384-4.16-107.381-4.16s-75.234,1.594-107.381,4.16  c-34.008,2.715-72.295,5.797-73.946,39.675c-14.724-3.011-50.365-10.083-69.486-12.034c0.091-2.66,0.225-5.308,0.399-7.946  c41.545-31.559,159.961-42.841,250.414-42.841s208.868,11.282,250.414,42.841C568.945,285.922,569.079,288.57,569.17,291.23z   M468.262,219.208c-29.314-53.716-86.903-88.997-149.905-88.997s-120.59,35.281-149.905,88.997  c34.917-6.162,105.986-12.02,149.905-12.02S433.345,213.046,468.262,219.208z"></path>
<path id="_x23_0A8DCD" fill="#0A8DCD" d="M231.527,518.542c-0.23,5.445,0.299,10.816,1.468,16.053  C136.511,499.803,67.38,407.699,67.38,299.815c0-0.172,0.006-0.343,0.007-0.515c19.396,2.056,56.774,9.548,69.867,12.234  c3.528,45.393,23.399,87.488,56.161,118.778c15.344,14.655,32.895,26.299,51.869,34.651  C237.472,484.382,232.081,505.415,231.527,518.542z M569.328,299.3c-19.396,2.056-56.774,9.548-69.867,12.234  c-3.528,45.393-23.399,87.488-56.161,118.778c-15.344,14.655-32.895,26.299-51.869,34.651c7.81,19.419,13.201,40.452,13.755,53.579  c0.229,5.445-0.299,10.816-1.469,16.053c96.485-34.792,165.616-126.896,165.616-234.781  C569.335,299.643,569.328,299.472,569.328,299.3z M492.179,247.207c31.252,6.238,58.046,14.685,75.7,25.743  C554.37,147.891,447.546,50.185,318.357,50.185S82.344,147.891,68.836,272.95c17.654-11.059,44.448-19.505,75.7-25.743  c11.006-36.13,33.647-68.59,63.923-91.522c31.739-24.041,69.839-36.749,109.898-36.749s78.159,12.708,109.898,36.749  C458.532,178.617,481.173,211.077,492.179,247.207z"></path>
<path id="_x23_F2F2F3" fill="#F2F2F3" d="M625.438,555.613c4.475,14.58-4.835,31.187-19.415,35.662  c-3.055,0.938-6.075,1.268-8.99,1.118c0.254,2.909,0.032,5.937-0.796,9.025c-3.952,14.731-20.216,24.628-34.946,20.676  c-14.731-3.952-22.35-20.257-18.398-34.987c1.554-5.791,4.777-10.406,9.007-13.639l-70.166-69.691  c9.278-7.371,18.043-15.353,26.235-23.887l68.54,68.075c3.08-4.344,7.577-7.729,13.309-9.488  C604.396,534.001,620.962,541.033,625.438,555.613z M128.747,479.889l-68.54,68.075c-3.08-4.344-7.577-7.729-13.309-9.488  c-14.58-4.475-31.146,2.558-35.621,17.138c-4.475,14.58,4.835,31.187,19.415,35.662c3.056,0.938,6.075,1.268,8.99,1.118  c-0.254,2.909-0.032,5.937,0.796,9.025c3.952,14.731,20.216,24.628,34.946,20.676c14.731-3.952,22.35-20.257,18.398-34.987  c-1.554-5.791-4.777-10.406-9.007-13.639l70.166-69.691C145.703,496.405,136.938,488.423,128.747,479.889z M243.037,526.236  c0.529,5.048,1.815,9.997,3.842,14.75c2.164,5.073,5.149,9.923,8.926,14.433c1.962,2.343,4.126,4.599,6.502,6.742  c13.592,12.265,32.119,19.509,52.165,20.396c1.364,0.06,2.536,0.085,3.885,0.085c1.349,0,2.521-0.025,3.885-0.085  c20.046-0.888,38.573-8.131,52.165-20.396c2.376-2.144,4.54-4.399,6.502-6.742c3.776-4.51,6.762-9.36,8.926-14.433  c2.027-4.753,3.314-9.702,3.842-14.75c-11.748,4.094-40.726,12.709-75.32,12.709S254.785,530.33,243.037,526.236z M373.804,499.522  l8.142,21.965c5.423-1.588,9.5-3.003,11.878-3.875c-0.416-5.662-1.923-13.052-4.233-21.259  C385.912,497.199,380.504,498.35,373.804,499.522z M340.986,503.639l6.672,25.189c10.764-1.487,20.326-3.58,28.058-5.612  l-8.387-22.627C359.639,501.783,350.707,502.903,340.986,503.639z M295.512,529.627c7.179,0.783,14.947,1.263,22.846,1.263  s15.667-0.48,22.846-1.263l-6.77-25.562c-5.152,0.282-10.627,0.447-16.075,0.447s-10.923-0.165-16.075-0.447L295.512,529.627z   M260.998,523.216c7.732,2.031,17.294,4.125,28.058,5.612l6.672-25.189c-9.721-0.736-18.653-1.856-26.343-3.05L260.998,523.216z   M242.89,517.612c2.378,0.872,6.455,2.288,11.878,3.875l8.142-21.965c-6.7-1.171-12.108-2.323-15.787-3.169  C244.814,504.56,243.306,511.949,242.89,517.612z M249.464,488.607c3.503,0.789,8.508,1.838,14.634,2.911l4.304-18.261  c-4.027-1.149-8.022-2.397-11.952-3.821C253.838,475.853,251.469,482.36,249.464,488.607z M270.469,492.572  c8.501,1.325,18.563,2.566,29.468,3.274v-16.561c-8.577-0.861-17.026-2.329-25.305-4.373L270.469,492.572z M330.334,496.195v-16.386  c-3.925,0.254-8.012,0.425-11.977,0.425s-8.052-0.171-11.977-0.425v16.386c3.87,0.167,7.969,0.262,11.977,0.262  S326.464,496.363,330.334,496.195z M336.778,479.285v16.561c10.905-0.709,20.967-1.95,29.468-3.274l-4.163-17.66  C353.804,476.956,345.355,478.424,336.778,479.285z M380.264,469.436c-3.93,1.423-7.925,2.672-11.952,3.821l4.304,18.261  c6.126-1.073,11.131-2.121,14.634-2.911C385.245,482.36,382.876,475.853,380.264,469.436z M488.404,308.204  c-4.194,65.883-45.193,121.326-101.91,146.4c-3.5,1.547-7.06,2.976-10.674,4.287c-17.954,6.513-37.406,10.066-57.463,10.066  s-39.509-3.553-57.463-10.066c-3.614-1.311-7.175-2.74-10.674-4.287c-56.717-25.074-97.716-80.517-101.91-146.4  c-1.535-24.093,18.368-29.768,63.562-33.376c31.872-2.544,72.765-4.124,106.485-4.124s74.613,1.58,106.485,4.124  C470.036,278.436,489.939,284.111,488.404,308.204z M293.867,354.689c0-29.604-23.998-53.602-53.602-53.602  c-29.603,0-53.602,23.998-53.602,53.602c0,29.604,23.998,53.602,53.602,53.602C269.869,408.291,293.867,384.292,293.867,354.689z   M339.069,421.091c0-11.439-9.273-20.711-20.711-20.711c-11.439,0-20.711,9.273-20.711,20.711c0,11.439,9.273,20.711,20.711,20.711  C329.796,441.803,339.069,432.53,339.069,421.091z M450.051,354.689c0-29.604-23.998-53.602-53.602-53.602  c-29.604,0-53.602,23.998-53.602,53.602c0,29.604,23.998,53.602,53.602,53.602C426.052,408.291,450.051,384.292,450.051,354.689z   M523.614,137.641l53.608-53.245c6.929,8.83,18.851,13.671,29.911,10.703c14.731-3.952,22.35-20.256,18.398-34.987  c-3.576-13.331-15.981-20.448-29.223-18.757c2.162-13.173-4.508-25.823-17.702-29.873c-14.58-4.475-31.146,2.557-35.621,17.138  c-3.36,10.947,1.052,23.034,9.629,30.273l-52.963,52.605C508.215,119.661,516.22,128.398,523.614,137.641z M29.581,95.099  c11.06,2.967,22.982-1.873,29.911-10.703l53.608,53.245c7.395-9.242,15.4-17.98,23.964-26.143L84.1,58.893  c8.577-7.239,12.989-19.327,9.629-30.273c-4.475-14.58-21.041-21.613-35.621-17.138c-13.195,4.05-19.864,16.7-17.702,29.873  c-13.242-1.691-25.646,5.426-29.223,18.757C7.232,74.843,14.851,91.147,29.581,95.099z"></path>
<g>
</g>
<g>
</g>
<g>
</g>
<g>
</g>
<g>
</g>
</svg>
